<svg id="Capa_1" fill="white" enable-background="new 0 0 512 512" height="512" viewBox="0 0 512 512" width="512" xmlns="http://www.w3.org/2000/svg"><g><path d="m440.734 0h-351.681c-15.558 0-28.214 12.656-28.214 28.213v30.398h-7.787c-5.522 0-10 4.478-10 10v48.968c0 5.522 4.478 10 10 10h7.787v39.636h-7.787c-5.522 0-10 4.478-10 10v48.967c0 5.523 4.478 10 10 10h7.787v39.637h-7.787c-5.522 0-10 4.478-10 10v48.967c0 5.522 4.478 10 10 10h7.787v39.636h-7.787c-5.522 0-10 4.478-10 10v48.968c0 5.522 4.478 10 10 10h7.787v30.397c0 15.558 12.656 28.214 28.214 28.214h351.682c15.558 0 28.214-12.656 28.214-28.214v-455.574c-.001-15.557-12.657-28.213-28.215-28.213zm-377.682 107.579v-28.968h35.575v28.968zm0 108.603v-28.967h35.575v28.967zm0 108.603v-28.967h35.575v28.967zm0 108.604v-28.968h35.575v28.968zm76.767 58.611h-50.766c-4.529 0-8.214-3.685-8.214-8.214v-30.397h27.788c5.522 0 10-4.478 10-10v-48.968c0-5.522-4.478-10-10-10h-27.788v-39.636h27.788c5.522 0 10-4.478 10-10v-48.967c0-5.522-4.478-10-10-10h-27.788v-39.637h27.788c5.522 0 10-4.477 10-10v-48.967c0-5.522-4.478-10-10-10h-27.788v-39.636h27.788c5.522 0 10-4.478 10-10v-48.967c0-5.522-4.478-10-10-10h-27.788v-30.398c0-4.528 3.685-8.213 8.214-8.213h50.767v472zm309.129-8.214c0 4.529-3.685 8.214-8.214 8.214h-280.915v-472h280.915c4.529 0 8.214 3.685 8.214 8.213z"/><path d="m302.07 117.85c-62.953 0-114.17 51.217-114.17 114.17 0 40.063 20.426 76.488 54.638 97.439.014.008.027.016.041.024 17.868 10.931 38.438 16.708 59.491 16.708 21.055 0 41.635-5.781 59.518-16.719.051-.031.101-.063.152-.095 34.13-20.963 54.501-57.344 54.501-97.358-.001-62.953-51.218-114.169-114.171-114.169zm-44.309 197.287v-54.057c0-3.7 3.01-6.71 6.709-6.71h37.444c.052 0 .103.001.155.001s.103-.001.155-.001h37.447c3.694 0 6.7 3.01 6.7 6.71v54.064c-13.576 7.241-28.779 11.046-44.3 11.046-15.532 0-30.739-3.807-44.31-11.053zm14.902-110.276c0-16.271 13.191-29.51 29.405-29.51s29.405 13.238 29.405 29.51c0 16.221-13.109 29.426-29.253 29.509h-.304c-16.144-.082-29.253-13.288-29.253-29.509zm93.707 96.016v-39.797c0-14.058-10.913-25.614-24.709-26.636 6.161-8.259 9.812-18.501 9.812-29.583 0-27.3-22.163-49.51-49.405-49.51s-49.405 22.21-49.405 49.51c0 11.081 3.652 21.324 9.812 29.583-13.8 1.023-24.715 12.579-24.715 26.636v39.782c-18.957-17.62-29.86-42.262-29.86-68.842 0-51.926 42.244-94.17 94.17-94.17s94.17 42.244 94.17 94.17c0 26.588-10.907 51.235-29.87 68.857z"/><path d="m406.24 376.148h-208.34c-5.523 0-10 4.478-10 10s4.477 10 10 10h208.34c5.522 0 10-4.478 10-10s-4.477-10-10-10z"/><path d="m366.24 422.872h-128.34c-5.523 0-10 4.478-10 10s4.477 10 10 10h128.34c5.522 0 10-4.478 10-10s-4.477-10-10-10z"/></g></svg>