<svg id="Capa_1" enable-background="new 0 0 512 512" height="512" viewBox="0 0 512 512" width="512" xmlns="http://www.w3.org/2000/svg"><g><path d="m455.476 398.803c-25.981 0-47.91 17.649-54.493 41.599h-90.406c-5.269-19.169-20.37-34.289-39.513-39.566v-59.308c87.228-7.623 155.89-81.143 155.89-170.431 0-94.343-76.652-171.097-170.87-171.097s-170.87 76.754-170.87 171.097c0 89.288 68.662 162.808 155.89 170.431v59.308c-19.143 5.276-34.244 20.397-39.513 39.566h-90.574c-6.583-23.949-28.512-41.599-54.493-41.599-31.168 0-56.524 25.39-56.524 56.598s25.356 56.599 56.524 56.599c25.981 0 47.91-17.649 54.493-41.599h90.574c6.583 23.95 28.512 41.599 54.493 41.599s47.91-17.649 54.493-41.599h90.406c6.584 23.95 28.512 41.599 54.493 41.599 31.168 0 56.524-25.39 56.524-56.599s-25.356-56.598-56.524-56.598zm-398.952 83.197c-14.647 0-26.563-11.932-26.563-26.599s11.916-26.599 26.563-26.599 26.563 11.932 26.563 26.599-11.916 26.599-26.563 26.599zm165.286-349.034c0-18.924 15.375-34.319 34.274-34.319s34.274 15.396 34.274 34.319-15.375 34.32-34.274 34.32-34.274-15.396-34.274-34.32zm34.274 64.32c23.77 0 46.995 8.251 65.398 23.233 16.109 13.116 27.953 30.862 33.917 50.571-25.493 25.389-60.605 41.103-99.315 41.103-38.717 0-73.834-15.719-99.328-41.115 13.139-43.679 53.33-73.792 99.328-73.792zm0-167.286c77.698 0 140.91 63.296 140.91 141.097 0 26.542-7.362 51.394-20.142 72.622-8.511-17.877-20.959-33.848-36.47-46.476-11.062-9.006-23.475-16.124-36.678-21.159 10.319-11.416 16.614-26.543 16.614-43.117 0-35.466-28.815-64.319-64.234-64.319s-64.234 28.852-64.234 64.318c0 16.553 6.28 31.663 16.576 43.074-31.911 12.161-58.296 36.26-73.144 67.621-12.758-21.216-20.107-46.046-20.107-72.564 0-77.801 63.212-141.097 140.909-141.097zm0 452c-14.647 0-26.563-11.932-26.563-26.599s11.916-26.599 26.563-26.599c14.648 0 26.563 11.932 26.563 26.599s-11.915 26.599-26.563 26.599zm199.392 0c-14.648 0-26.563-11.932-26.563-26.599s11.916-26.599 26.563-26.599 26.563 11.932 26.563 26.599-11.915 26.599-26.563 26.599z"/></g></svg>