<svg height="512" viewBox="0 0 512 512" width="512" xmlns="http://www.w3.org/2000/svg"><g><path d="m476 48h-440a28.032 28.032 0 0 0 -28 28v360a28.032 28.032 0 0 0 28 28h440a28.032 28.032 0 0 0 28-28v-360a28.032 28.032 0 0 0 -28-28zm-440 16h440a12.013 12.013 0 0 1 12 12v20h-464v-20a12.013 12.013 0 0 1 12-12zm440 384h-440a12.013 12.013 0 0 1 -12-12v-324h464v324a12.013 12.013 0 0 1 -12 12z"/><path d="m40 88h8a8 8 0 0 0 0-16h-8a8 8 0 0 0 0 16z"/><path d="m72 88h8a8 8 0 0 0 0-16h-8a8 8 0 0 0 0 16z"/><path d="m104 88h8a8 8 0 0 0 0-16h-8a8 8 0 0 0 0 16z"/><path d="m256 296a80 80 0 1 0 -80-80 80.091 80.091 0 0 0 80 80zm0-144a64 64 0 1 1 -64 64 64.072 64.072 0 0 1 64-64z"/><path d="m234.343 245.657a8 8 0 0 0 11.314 0l48-48a8 8 0 0 0 -11.314-11.314l-42.343 42.343-10.343-10.343a8 8 0 0 0 -11.314 11.314z"/><path d="m112 384h120a8 8 0 0 0 0-16h-120a8 8 0 0 0 0 16z"/><path d="m400 392h-288a8 8 0 0 0 0 16h288a8 8 0 0 0 0-16z"/><path d="m288 416h-96a8 8 0 0 0 0 16h96a8 8 0 0 0 0-16z"/><path d="m320 416h-8a8 8 0 0 0 0 16h8a8 8 0 0 0 0-16z"/><path d="m400 368h-144a8 8 0 0 0 0 16h144a8 8 0 0 0 0-16z"/><path d="m200 304a8 8 0 0 0 -8 8v24a8 8 0 0 0 8 8h112a8 8 0 0 0 8-8v-24a8 8 0 0 0 -8-8zm104 24h-96v-8h96z"/></g></svg>