<svg id="Capa_1" fill="white" enable-background="new 0 0 512 512" height="512" viewBox="0 0 512 512" width="512" xmlns="http://www.w3.org/2000/svg"><g><path d="m86.142 36.899h-19.967c-4.143 0-7.5 3.357-7.5 7.5s3.357 7.5 7.5 7.5h19.967c4.143 0 7.5-3.357 7.5-7.5s-3.358-7.5-7.5-7.5z"/><path d="m86.142 65.337h-19.967c-4.143 0-7.5 3.357-7.5 7.5s3.357 7.5 7.5 7.5h19.967c4.143 0 7.5-3.357 7.5-7.5s-3.358-7.5-7.5-7.5z"/><path d="m131.282 58.619c0 4.143 3.357 7.5 7.5 7.5h200.276c4.143 0 7.5-3.357 7.5-7.5s-3.357-7.5-7.5-7.5h-200.276c-4.142 0-7.5 3.357-7.5 7.5z"/><path d="m66.175 154.124h19.967c4.143 0 7.5-3.357 7.5-7.5s-3.357-7.5-7.5-7.5h-19.967c-4.143 0-7.5 3.357-7.5 7.5s3.357 7.5 7.5 7.5z"/><path d="m66.175 182.562h19.967c4.143 0 7.5-3.357 7.5-7.5s-3.357-7.5-7.5-7.5h-19.967c-4.143 0-7.5 3.357-7.5 7.5s3.357 7.5 7.5 7.5z"/><path d="m138.782 168.342h200.276c4.143 0 7.5-3.357 7.5-7.5s-3.357-7.5-7.5-7.5h-200.276c-4.143 0-7.5 3.357-7.5 7.5s3.358 7.5 7.5 7.5z"/><path d="m86.142 241.348h-19.967c-4.143 0-7.5 3.357-7.5 7.5s3.357 7.5 7.5 7.5h19.967c4.143 0 7.5-3.357 7.5-7.5s-3.358-7.5-7.5-7.5z"/><path d="m86.142 269.786h-19.967c-4.143 0-7.5 3.357-7.5 7.5s3.357 7.5 7.5 7.5h19.967c4.143 0 7.5-3.357 7.5-7.5s-3.358-7.5-7.5-7.5z"/><path d="m339.059 255.567h-200.277c-4.143 0-7.5 3.357-7.5 7.5s3.357 7.5 7.5 7.5h200.276c4.143 0 7.5-3.357 7.5-7.5s-3.357-7.5-7.499-7.5z"/><path d="m66.175 358.573h19.967c4.143 0 7.5-3.357 7.5-7.5s-3.357-7.5-7.5-7.5h-19.967c-4.143 0-7.5 3.357-7.5 7.5s3.357 7.5 7.5 7.5z"/><path d="m86.142 372.01h-19.967c-4.143 0-7.5 3.357-7.5 7.5s3.357 7.5 7.5 7.5h19.967c4.143 0 7.5-3.357 7.5-7.5s-3.358-7.5-7.5-7.5z"/><path d="m339.059 372.792c4.143 0 7.5-3.357 7.5-7.5s-3.357-7.5-7.5-7.5h-200.277c-4.143 0-7.5 3.357-7.5 7.5s3.357 7.5 7.5 7.5z"/><path d="m504.092 399.316-7.501-4.509c-.19-.115-.35-.276-.461-.469l-16.619-28.786c-.11-.19-.17-.408-.174-.63l-.154-8.753c-.101-5.688-3.225-10.99-8.153-13.838l-14.758-8.52c-4.93-2.845-11.083-2.898-16.061-.142l-7.655 4.241c-.194.108-.414.165-.637.165h-17.439c-.177-1.994-1.138-3.848-2.698-5.132l-22.812-18.766 22.812-18.766c1.731-1.425 2.735-3.55 2.735-5.792v-53.108c0-2.242-1.004-4.367-2.735-5.792l-22.813-18.767 22.813-18.766c1.731-1.425 2.735-3.55 2.735-5.792v-53.108c0-2.242-1.004-4.367-2.735-5.792l-22.813-18.766 22.813-18.767c1.731-1.425 2.735-3.55 2.735-5.792v-53.105c0-2.242-1.004-4.367-2.735-5.792l-29.854-24.558c-1.343-1.104-3.026-1.708-4.765-1.708h-53.098c-4.143 0-7.5 3.357-7.5 7.5s3.357 7.5 7.5 7.5h50.409l25.042 20.6v46.024l-25.042 20.601h-334.431l-25.043-20.601v-46.024l25.043-20.6h254.036c4.143 0 7.5-3.357 7.5-7.5s-3.357-7.5-7.5-7.5h-256.725c-1.738 0-3.422.604-4.765 1.708l-29.854 24.558c-1.731 1.425-2.735 3.55-2.735 5.792v53.108c0 2.242 1.004 4.367 2.735 5.792l22.813 18.767-22.813 18.766c-1.731 1.424-2.735 3.549-2.735 5.792v53.108c0 2.242 1.004 4.367 2.735 5.792l22.813 18.766-22.813 18.766c-1.731 1.425-2.735 3.55-2.735 5.792v53.108c0 2.242 1.004 4.367 2.735 5.792l22.813 18.766-22.813 18.766c-1.731 1.425-2.735 3.55-2.735 5.792v53.108c0 2.242 1.004 4.367 2.735 5.792l29.854 24.559c1.343 1.104 3.026 1.708 4.765 1.708h33.794c4.143 0 7.5-3.357 7.5-7.5s-3.357-7.5-7.5-7.5h-31.105l-25.043-20.601v-46.024l25.043-20.6h334.432l13.087 10.765c-4.356-1.416-9.202-.958-13.232 1.368l-14.758 8.52c-4.928 2.846-8.052 8.148-8.152 13.839l-.154 8.751c-.004.222-.064.439-.176.633l-16.618 28.784c-.111.192-.271.354-.46.469l-7.502 4.509c-3.592 2.159-6.176 5.634-7.292 9.588h-218.083c-4.143 0-7.5 3.357-7.5 7.5s3.357 7.5 7.5 7.5h217.466v6.433c0 5.691 3.03 11.049 7.908 13.979l7.502 4.51c.189.114.349.276.46.469l16.618 28.783c.111.192.172.412.176.633l.154 8.753c.101 5.69 3.226 10.993 8.153 13.837l14.758 8.521c4.929 2.844 11.082 2.898 16.06.141l7.656-4.242c.194-.107.414-.164.637-.164h33.236c.223 0 .442.057.636.164l7.655 4.242c2.446 1.354 5.176 2.031 7.904 2.031 2.825 0 5.65-.726 8.157-2.173l14.758-8.521c4.929-2.845 8.053-8.147 8.153-13.838l.154-8.752c.004-.223.064-.441.175-.633l16.618-28.783c.111-.192.271-.354.461-.469l7.501-4.509c4.878-2.932 7.908-8.289 7.908-13.98v-17.04c.001-5.692-3.029-11.049-7.907-13.981zm-489.092-261.485 25.043-20.6h334.432l25.042 20.6v46.024l-25.042 20.6h-334.432l-25.043-20.6zm25.043 168.848-25.043-20.599v-46.024l25.043-20.601h334.432l25.042 20.601v46.024l-25.042 20.6h-334.432zm456.957 123.657c0 .458-.243.888-.636 1.124l-7.501 4.51c-2.365 1.421-4.345 3.436-5.724 5.824l-16.618 28.783c-1.379 2.389-2.134 5.109-2.183 7.869l-.154 8.751c-.008.457-.259.884-.655 1.112l-14.758 8.521c-.396.229-.891.233-1.291.011l-7.657-4.242c-2.413-1.337-5.146-2.043-7.904-2.043h-33.236c-2.758 0-5.491.706-7.905 2.043l-7.658 4.242c-.398.223-.894.218-1.29-.011l-14.758-8.521c-.396-.228-.646-.654-.654-1.11l-.154-8.753c-.049-2.758-.804-5.479-2.184-7.868l-16.618-28.783c-1.38-2.39-3.358-4.404-5.723-5.824l-7.503-4.511c-.392-.235-.635-.665-.635-1.123v-17.04c0-.458.243-.888.636-1.124l7.502-4.51c2.364-1.42 4.343-3.435 5.723-5.824l16.617-28.782c1.38-2.389 2.136-5.11 2.185-7.87l.154-8.751c.008-.458.259-.885.655-1.113l14.756-8.519c.396-.23.892-.234 1.292-.012l7.658 4.243c2.413 1.336 5.146 2.042 7.904 2.042h33.236c2.758 0 5.491-.706 7.905-2.043l7.657-4.242c.398-.223.894-.218 1.29.011l14.756 8.519c.397.229.649.656.657 1.113l.154 8.752c.049 2.761.804 5.482 2.183 7.868l16.618 28.784c1.379 2.389 3.358 4.403 5.723 5.824l7.502 4.51.001.001c.392.235.635.665.635 1.123z"/><path d="m415.301 370.997c-28.021 0-50.819 22.798-50.819 50.82 0 8.989 2.392 17.836 6.916 25.585 2.089 3.576 6.68 4.783 10.259 2.694 3.576-2.089 4.783-6.682 2.694-10.259-3.186-5.455-4.869-11.687-4.869-18.021 0-19.751 16.068-35.82 35.819-35.82s35.819 16.069 35.819 35.82-16.068 35.819-35.819 35.819c-3.991 0-7.93-.662-11.706-1.967-3.915-1.356-8.186.724-9.538 4.638-1.354 3.914.723 8.186 4.638 9.538 5.355 1.853 10.942 2.791 16.606 2.791 28.021 0 50.819-22.798 50.819-50.819 0-28.022-22.798-50.819-50.819-50.819z"/></g></svg>